<svg width="250" height="239" viewBox="0 0 250 239" fill="none" xmlns="http://www.w3.org/2000/svg">
<rect width="250" height="238.956" rx="12.1324" fill="#FFEAE9"/>
<path d="M125 158.108L103.25 132.008V105.908H146.75V132.008L125 158.108Z" fill="#E2AF7D"/>
<path d="M164.15 88.5075C168.955 88.5075 172.85 84.6123 172.85 79.8074C172.85 75.0026 168.955 71.1074 164.15 71.1074C159.345 71.1074 155.45 75.0026 155.45 79.8074C155.45 84.6123 159.345 88.5075 164.15 88.5075Z" fill="#E2AF7D"/>
<path d="M85.8499 88.5075C90.6548 88.5075 94.55 84.6123 94.55 79.8074C94.55 75.0026 90.6548 71.1074 85.8499 71.1074C81.045 71.1074 77.1499 75.0026 77.1499 79.8074C77.1499 84.6123 81.045 88.5075 85.8499 88.5075Z" fill="#E2AF7D"/>
<path d="M164.15 53.7076C164.15 20.6475 85.85 31.9575 85.85 53.7076C85.85 58.4926 85.85 79.3727 85.85 84.1577C85.85 105.908 103.25 123.308 125 123.308C146.75 123.308 164.15 105.908 164.15 84.1577C164.15 79.3727 164.15 58.4926 164.15 53.7076Z" fill="#F2CB9C"/>
<path d="M125 14.5586C98.465 14.5586 81.4999 35.8737 81.4999 62.4087C81.4999 65.8887 81.4999 72.4137 81.4999 72.4137L90.2 79.8088V58.0587L142.4 40.6587L159.8 58.0587V79.8088L168.5 72.4137C168.5 72.4137 168.5 65.8887 168.5 62.4087C168.5 45.0087 164.15 27.6086 142.4 23.2586L138.05 14.5586H125Z" fill="#424242"/>
<path d="M142.4 84.159C144.803 84.159 146.75 82.2114 146.75 79.809C146.75 77.4066 144.803 75.459 142.4 75.459C139.998 75.459 138.05 77.4066 138.05 79.809C138.05 82.2114 139.998 84.159 142.4 84.159Z" fill="#191614"/>
<path d="M107.6 84.159C110.003 84.159 111.95 82.2114 111.95 79.809C111.95 77.4066 110.003 75.459 107.6 75.459C105.198 75.459 103.25 77.4066 103.25 79.809C103.25 82.2114 105.198 84.159 107.6 84.159Z" fill="#191614"/>
<path d="M125 184.21L103.25 132.01L125 136.36L146.75 132.01L125 184.21Z" fill="white"/>
<path d="M120.65 149.407L117.605 168.983L125 186.383L132.395 168.983L129.35 149.407L133.7 145.057L125 136.357L116.3 145.057L120.65 149.407Z" fill="#D32F2F"/>
<path d="M146.75 132.01L125 184.21L103.25 132.01C103.25 132.01 55.3999 140.71 55.3999 188.56H194.6C194.6 140.71 146.75 132.01 146.75 132.01Z" fill="#053F55"/>
<path d="M108.893 224.718C108.053 224.718 107.286 224.585 106.593 224.318C105.913 224.038 105.333 223.638 104.853 223.118C104.373 222.598 103.999 221.972 103.733 221.238C103.466 220.492 103.333 219.645 103.333 218.698V210.078H106.033V218.858C106.033 219.338 106.093 219.778 106.213 220.178C106.333 220.578 106.513 220.925 106.753 221.218C106.993 221.512 107.293 221.745 107.653 221.918C108.013 222.078 108.426 222.158 108.893 222.158C109.373 222.158 109.793 222.078 110.153 221.918C110.513 221.745 110.813 221.512 111.053 221.218C111.293 220.925 111.473 220.578 111.593 220.178C111.713 219.778 111.773 219.338 111.773 218.858V210.078H114.473V218.698C114.473 219.592 114.339 220.412 114.073 221.158C113.819 221.892 113.446 222.525 112.953 223.058C112.473 223.578 111.886 223.985 111.193 224.278C110.513 224.572 109.746 224.718 108.893 224.718ZM121.649 224.718C121.009 224.718 120.436 224.638 119.929 224.478C119.436 224.318 119.002 224.112 118.629 223.858C118.269 223.592 117.962 223.292 117.709 222.958C117.456 222.612 117.262 222.265 117.129 221.918L119.469 220.918C119.696 221.425 119.996 221.805 120.369 222.058C120.756 222.298 121.182 222.418 121.649 222.418C122.129 222.418 122.509 222.332 122.789 222.158C123.069 221.985 123.209 221.778 123.209 221.538C123.209 221.272 123.089 221.058 122.849 220.898C122.622 220.725 122.222 220.572 121.649 220.438L120.269 220.138C119.962 220.072 119.642 219.965 119.309 219.818C118.989 219.672 118.696 219.485 118.429 219.258C118.162 219.032 117.942 218.758 117.769 218.438C117.596 218.118 117.509 217.745 117.509 217.318C117.509 216.838 117.609 216.412 117.809 216.038C118.022 215.665 118.309 215.352 118.669 215.098C119.029 214.832 119.449 214.632 119.929 214.498C120.422 214.352 120.949 214.278 121.509 214.278C122.442 214.278 123.276 214.465 124.009 214.838C124.742 215.198 125.282 215.778 125.629 216.578L123.369 217.498C123.182 217.112 122.909 216.832 122.549 216.658C122.189 216.485 121.829 216.398 121.469 216.398C121.096 216.398 120.769 216.478 120.489 216.638C120.209 216.785 120.069 216.978 120.069 217.218C120.069 217.445 120.182 217.625 120.409 217.758C120.649 217.892 120.969 218.012 121.369 218.118L122.869 218.478C123.869 218.718 124.609 219.105 125.089 219.638C125.582 220.158 125.829 220.778 125.829 221.498C125.829 221.925 125.729 222.332 125.529 222.718C125.329 223.105 125.042 223.452 124.669 223.758C124.309 224.052 123.869 224.285 123.349 224.458C122.842 224.632 122.276 224.718 121.649 224.718ZM137.872 222.038C137.419 222.838 136.805 223.485 136.032 223.978C135.272 224.472 134.339 224.718 133.232 224.718C132.485 224.718 131.792 224.592 131.152 224.338C130.525 224.072 129.979 223.705 129.512 223.238C129.045 222.772 128.679 222.225 128.412 221.598C128.159 220.958 128.032 220.258 128.032 219.498C128.032 218.792 128.159 218.125 128.412 217.498C128.665 216.858 129.019 216.305 129.472 215.838C129.925 215.358 130.459 214.978 131.072 214.698C131.699 214.418 132.385 214.278 133.132 214.278C133.919 214.278 134.619 214.412 135.232 214.678C135.845 214.932 136.359 215.292 136.772 215.758C137.185 216.212 137.499 216.752 137.712 217.378C137.925 218.005 138.032 218.685 138.032 219.418C138.032 219.512 138.032 219.592 138.032 219.658C138.019 219.738 138.012 219.812 138.012 219.878C137.999 219.945 137.992 220.018 137.992 220.098H130.612C130.665 220.498 130.772 220.845 130.932 221.138C131.105 221.418 131.312 221.658 131.552 221.858C131.805 222.045 132.079 222.185 132.372 222.278C132.665 222.358 132.965 222.398 133.272 222.398C133.872 222.398 134.365 222.265 134.752 221.998C135.152 221.718 135.465 221.372 135.692 220.958L137.872 222.038ZM135.492 218.238C135.479 218.065 135.419 217.872 135.312 217.658C135.219 217.445 135.072 217.245 134.872 217.058C134.685 216.872 134.445 216.718 134.152 216.598C133.872 216.478 133.532 216.418 133.132 216.418C132.572 216.418 132.079 216.578 131.652 216.898C131.225 217.218 130.925 217.665 130.752 218.238H135.492ZM140.763 214.598H143.223V215.958H143.383C143.503 215.718 143.663 215.498 143.863 215.298C144.063 215.098 144.283 214.925 144.523 214.778C144.776 214.632 145.043 214.518 145.323 214.438C145.616 214.358 145.903 214.318 146.183 214.318C146.529 214.318 146.823 214.352 147.063 214.418C147.316 214.485 147.529 214.572 147.703 214.678L147.003 217.058C146.843 216.978 146.663 216.918 146.463 216.878C146.276 216.825 146.043 216.798 145.763 216.798C145.403 216.798 145.076 216.872 144.783 217.018C144.489 217.152 144.236 217.345 144.023 217.598C143.823 217.852 143.663 218.152 143.543 218.498C143.436 218.832 143.383 219.198 143.383 219.598V224.398H140.763V214.598Z" fill="black"/>
</svg>
