<svg width="250" height="240" viewBox="0 0 250 240" fill="none" xmlns="http://www.w3.org/2000/svg">
<rect y="0.957031" width="250" height="238.957" rx="12.1324" fill="#EDE4FF"/>
<path d="M139.434 125.652C136.741 126.489 133.879 126.943 130.911 126.943H130.911H119.089C116.121 126.943 113.259 126.489 110.567 125.652C110.182 125.532 109.801 125.405 109.424 125.27V132.569L125 152.587L140.577 132.569V125.27C140.2 125.404 139.818 125.532 139.434 125.652Z" fill="#E2AF7D"/>
<path d="M117.022 134.431V129.545V126.867C114.79 126.707 112.629 126.293 110.568 125.652C110.182 125.532 109.802 125.405 109.424 125.27V132.569L117.022 142.333V134.431Z" fill="#DB995D"/>
<path d="M159.606 63.3597V68.3255V71.9439V76.9097C164.168 76.9097 167.946 80.2571 168.622 84.6289V79.6631V68.3252V63.3594H159.606V63.3597Z" fill="#7C7A75"/>
<path d="M81.2707 68.3252V81.067V86.0328C81.2707 80.9939 85.3557 76.9093 90.3949 76.9093V71.9435V68.3252V63.3594H81.2707V68.3252Z" fill="#7C7A75"/>
<path d="M71.5985 138.553C59.7824 142.509 51.2642 153.66 51.2642 166.807V184.956C51.2642 187.474 53.3053 189.515 55.8232 189.515H71.5985V138.553Z" fill="#36A1CB"/>
<path d="M58.8621 184.956V166.807C58.8621 156.699 63.9007 147.776 71.5978 142.39V138.553C59.7818 142.509 51.2635 153.66 51.2635 166.807V184.956C51.2635 187.474 53.305 189.515 55.8226 189.515H63.4208C60.9036 189.515 58.8621 187.474 58.8621 184.956Z" fill="#2B80AF"/>
<path d="M178.383 138.547V189.515H194.178C196.695 189.515 198.737 187.475 198.737 184.956V166.808C198.737 153.653 190.209 142.498 178.383 138.547Z" fill="#36A1CB"/>
<path d="M152.492 189.516H166.061V137.127C166.061 137.088 166.066 137.049 166.067 137.01H152.438L125.001 152.586L124.957 152.543L124.991 152.586L97.5527 137.01H83.1548C83.1562 137.049 83.1609 137.088 83.1609 137.127V189.516H142.234" fill="#36A1CB"/>
<path d="M135.08 57.8517H164.574C162.877 41.1908 150.894 27.5811 135.08 23.4492V57.8517Z" fill="#FFB92E"/>
<path d="M114.92 23.4492C99.1064 27.5807 87.1235 41.1905 85.4267 57.8517H114.92V23.4492Z" fill="#FFB92E"/>
<path d="M114.92 26.5068V23.4492C99.1064 27.5807 87.1235 41.1905 85.4267 57.8517H93.4307C94.8271 44.1417 103.191 32.5034 114.92 26.5068Z" fill="#FFAB31"/>
<path d="M135.08 57.8514V20.5559C135.08 17.7719 132.824 15.5156 130.041 15.5156H119.96C117.177 15.5156 114.921 17.7719 114.921 20.5559V57.8511L135.08 57.8514Z" fill="#F28838"/>
<path d="M127.28 15.5156H119.96C117.176 15.5156 114.92 17.7719 114.92 20.5559V57.8511H122.24V20.5559C122.24 17.7719 124.497 15.5156 127.28 15.5156Z" fill="#EF711D"/>
<path d="M98.0269 63.3606C96.4531 63.3606 95.1776 62.0851 95.1776 60.5113V32.4079C95.1776 30.834 96.4531 29.5586 98.0269 29.5586C99.6004 29.5586 100.876 30.834 100.876 32.4079V60.5113C100.876 62.0848 99.6004 63.3606 98.0269 63.3606Z" fill="#F28838"/>
<path d="M151.975 63.3606C150.4 63.3606 149.125 62.0851 149.125 60.5113V32.4079C149.125 30.834 150.401 29.5586 151.975 29.5586C153.548 29.5586 154.824 30.834 154.824 32.4079V60.5113C154.824 62.0848 153.548 63.3606 151.975 63.3606Z" fill="#F28838"/>
<path d="M90.3944 76.5312C85.3552 76.5312 81.2703 80.6162 81.2703 85.6547C81.2703 90.6933 85.3552 94.7782 90.3944 94.7782V76.5312Z" fill="#E2AF7D"/>
<path d="M159.607 76.5312C164.646 76.5312 168.731 80.6162 168.731 85.6547C168.731 90.6933 164.646 94.7782 159.607 94.7782V76.5312Z" fill="#E2AF7D"/>
<path d="M135.773 68.3262H114.111H90.3362V98.2478C90.3362 114.095 103.183 126.943 119.031 126.943H130.852C146.7 126.943 159.548 114.095 159.548 98.2478V68.3262H135.773Z" fill="#F2CB9C"/>
<path d="M98.0268 98.2478V68.3262H90.3942V98.2478C90.3942 114.095 103.241 126.943 119.089 126.943H126.721C110.874 126.943 98.0268 114.095 98.0268 98.2478Z" fill="#EDBD88"/>
<path d="M170.902 63.3235V62.0947C170.902 59.3321 168.662 57.0918 165.899 57.0918H135.83H114.168H84.1006C81.337 57.0918 79.0977 59.3317 79.0977 62.0947V63.3235C79.0977 66.0861 81.337 68.3264 84.1006 68.3264H114.168H135.83H165.899C168.662 68.326 170.902 66.0861 170.902 63.3235Z" fill="#F28838"/>
<path d="M86.4183 63.3235V62.0947C86.4183 59.3321 88.6579 57.0918 91.4202 57.0918H84.1006C81.337 57.0918 79.0977 59.3317 79.0977 62.0947V63.3235C79.0977 66.0861 81.337 68.3264 84.1006 68.3264H91.4202C88.6579 68.326 86.4183 66.0861 86.4183 63.3235Z" fill="#EF711D"/>
<path d="M140.576 155.951L152.438 137.01L140.577 132.568L125.001 152.586L132.008 157.442C132.214 157.581 137.405 161.014 140.576 155.951Z" fill="#8BD8F7"/>
<path d="M109.415 155.951L97.5525 137.01L109.414 132.568L124.991 152.586L117.983 157.442C117.777 157.581 112.586 161.014 109.415 155.951Z" fill="#8BD8F7"/>
<path d="M124.991 152.586L122.142 154.561V177.352C122.142 178.926 123.417 180.201 124.991 180.201C126.565 180.201 127.841 178.926 127.841 177.352V154.554L125.001 152.586H124.991V152.586Z" fill="#2B80AF"/>
<path d="M79.089 189.515V177.352H170.892V189.515" fill="#FFB92E"/>
<path d="M174.584 132.568H167.201C164.683 132.568 162.642 134.609 162.642 137.127V157.604H179.143V137.127C179.143 134.61 177.103 132.568 174.584 132.568Z" fill="#FFB92E"/>
<path d="M82.7803 132.568H75.3976C72.88 132.568 70.8385 134.609 70.8385 137.127V157.604H87.3397V137.127C87.3394 134.61 85.2989 132.568 82.7803 132.568Z" fill="#FFB92E"/>
<path d="M179.142 156.389H162.642V189.517H179.142V156.389Z" fill="#F28838"/>
<path d="M75.3976 132.568C72.8801 132.568 70.8386 134.609 70.8386 137.127V157.604H78.4369V137.127C78.4369 134.646 80.4212 132.632 82.8882 132.574C82.8521 132.573 82.8168 132.568 82.7808 132.568H75.3976Z" fill="#EF9A1D"/>
<path d="M87.3397 156.389H70.8399V189.517H87.3397V156.389Z" fill="#F28838"/>
<path d="M78.4382 156.389H70.8399V189.517H78.4382V156.389Z" fill="#EF711D"/>
<path d="M167.201 132.568C164.683 132.568 162.642 134.609 162.642 137.127V158.708H170.24V137.127C170.24 134.646 172.224 132.632 174.691 132.574C174.655 132.573 174.62 132.568 174.584 132.568H167.201Z" fill="#EF9A1D"/>
<path d="M170.24 156.389H162.642V189.517H170.24V156.389Z" fill="#EF711D"/>
<path d="M138.866 89.0578C140.78 89.0578 142.332 87.5059 142.332 85.5914C142.332 83.677 140.78 82.125 138.866 82.125C136.951 82.125 135.399 83.677 135.399 85.5914C135.399 87.5059 136.951 89.0578 138.866 89.0578Z" fill="black"/>
<path d="M111.135 89.0578C113.049 89.0578 114.601 87.5059 114.601 85.5914C114.601 83.677 113.049 82.125 111.135 82.125C109.22 82.125 107.668 83.677 107.668 85.5914C107.668 87.5059 109.22 89.0578 111.135 89.0578Z" fill="black"/>
<path d="M76.2698 225.355V213.53H72.2475V210.955H83.0073V213.53H78.9849V225.355H76.2698ZM93.1757 222.982C92.7198 223.787 92.103 224.437 91.3254 224.933C90.5611 225.429 89.6226 225.677 88.5097 225.677C87.7589 225.677 87.0617 225.55 86.4181 225.295C85.788 225.027 85.2382 224.658 84.769 224.189C84.2997 223.72 83.931 223.17 83.6628 222.54C83.4081 221.896 83.2807 221.192 83.2807 220.428C83.2807 219.717 83.4081 219.047 83.6628 218.417C83.9176 217.773 84.2729 217.217 84.7287 216.748C85.1846 216.265 85.7209 215.883 86.3377 215.601C86.9678 215.32 87.6584 215.179 88.4092 215.179C89.2002 215.179 89.9042 215.313 90.5209 215.581C91.1377 215.836 91.6539 216.198 92.0695 216.667C92.4852 217.123 92.8002 217.666 93.0148 218.296C93.2293 218.926 93.3366 219.61 93.3366 220.348C93.3366 220.442 93.3366 220.522 93.3366 220.589C93.3232 220.669 93.3165 220.743 93.3165 220.81C93.303 220.877 93.2963 220.951 93.2963 221.031H85.8751C85.9287 221.434 86.036 221.782 86.1969 222.077C86.3712 222.359 86.579 222.6 86.8204 222.801C87.0751 222.989 87.35 223.13 87.6449 223.224C87.9399 223.304 88.2416 223.344 88.55 223.344C89.1533 223.344 89.6494 223.21 90.0382 222.942C90.4405 222.66 90.7556 222.312 90.9835 221.896L93.1757 222.982ZM90.7824 219.161C90.769 218.987 90.7086 218.792 90.6014 218.578C90.5075 218.363 90.36 218.162 90.1589 217.974C89.9712 217.787 89.7299 217.633 89.4349 217.512C89.1533 217.391 88.8114 217.331 88.4092 217.331C87.8461 217.331 87.35 217.492 86.9209 217.814C86.4919 218.135 86.1902 218.585 86.0159 219.161H90.7824ZM105.307 222.842C104.878 223.673 104.275 224.357 103.497 224.893C102.733 225.416 101.774 225.677 100.621 225.677C99.8571 225.677 99.1532 225.55 98.5096 225.295C97.8794 225.027 97.3297 224.658 96.8604 224.189C96.4046 223.72 96.0425 223.17 95.7744 222.54C95.5196 221.896 95.3923 221.192 95.3923 220.428C95.3923 219.664 95.5196 218.96 95.7744 218.316C96.0425 217.673 96.4046 217.123 96.8604 216.667C97.3297 216.198 97.8794 215.836 98.5096 215.581C99.1532 215.313 99.8571 215.179 100.621 215.179C101.761 215.179 102.72 215.44 103.497 215.963C104.275 216.486 104.845 217.163 105.207 217.995L102.793 219C102.565 218.544 102.27 218.202 101.908 217.974C101.56 217.733 101.117 217.612 100.581 217.612C100.232 217.612 99.904 217.679 99.5956 217.814C99.2872 217.948 99.0124 218.135 98.771 218.377C98.5431 218.618 98.3621 218.913 98.228 219.262C98.0939 219.61 98.0269 219.999 98.0269 220.428C98.0269 220.857 98.0939 221.246 98.228 221.595C98.3621 221.943 98.5431 222.238 98.771 222.479C99.0124 222.721 99.2872 222.909 99.5956 223.043C99.904 223.177 100.232 223.244 100.581 223.244C101.131 223.244 101.593 223.123 101.969 222.882C102.358 222.627 102.666 222.265 102.894 221.796L105.307 222.842ZM107.753 210.955H110.387V214.998L110.226 216.788H110.387C110.669 216.319 111.071 215.936 111.594 215.642C112.13 215.333 112.727 215.179 113.384 215.179C114.658 215.179 115.596 215.554 116.2 216.305C116.816 217.056 117.125 218.082 117.125 219.382V225.355H114.49V219.704C114.49 219.02 114.329 218.504 114.007 218.155C113.686 217.793 113.236 217.612 112.66 217.612C112.298 217.612 111.976 217.693 111.695 217.854C111.413 218.001 111.172 218.209 110.971 218.477C110.783 218.745 110.635 219.06 110.528 219.423C110.434 219.771 110.387 220.147 110.387 220.549V225.355H107.753V210.955ZM122.613 216.788H122.774C123.082 216.292 123.498 215.903 124.021 215.621C124.544 215.326 125.14 215.179 125.811 215.179C126.427 215.179 126.971 215.279 127.44 215.481C127.909 215.682 128.291 215.97 128.586 216.345C128.895 216.707 129.122 217.15 129.27 217.673C129.431 218.182 129.511 218.752 129.511 219.382V225.355H126.877V219.704C126.877 218.993 126.716 218.471 126.394 218.135C126.086 217.787 125.63 217.612 125.026 217.612C124.664 217.612 124.343 217.693 124.061 217.854C123.793 218.001 123.558 218.209 123.357 218.477C123.169 218.732 123.022 219.04 122.915 219.402C122.821 219.751 122.774 220.126 122.774 220.529V225.355H120.139V215.501H122.613V216.788ZM133.994 214.073C133.766 214.073 133.545 214.033 133.33 213.952C133.129 213.858 132.948 213.738 132.787 213.59C132.64 213.429 132.519 213.248 132.425 213.047C132.345 212.846 132.305 212.625 132.305 212.383C132.305 212.142 132.345 211.921 132.425 211.72C132.519 211.519 132.64 211.344 132.787 211.197C132.948 211.036 133.129 210.915 133.33 210.835C133.545 210.741 133.766 210.694 133.994 210.694C134.463 210.694 134.865 210.862 135.201 211.197C135.536 211.519 135.703 211.914 135.703 212.383C135.703 212.853 135.536 213.255 135.201 213.59C134.865 213.912 134.463 214.073 133.994 214.073ZM132.687 225.355V215.501H135.321V225.355H132.687ZM147.822 222.842C147.393 223.673 146.79 224.357 146.012 224.893C145.248 225.416 144.289 225.677 143.136 225.677C142.372 225.677 141.668 225.55 141.024 225.295C140.394 225.027 139.845 224.658 139.375 224.189C138.919 223.72 138.557 223.17 138.289 222.54C138.034 221.896 137.907 221.192 137.907 220.428C137.907 219.664 138.034 218.96 138.289 218.316C138.557 217.673 138.919 217.123 139.375 216.667C139.845 216.198 140.394 215.836 141.024 215.581C141.668 215.313 142.372 215.179 143.136 215.179C144.276 215.179 145.234 215.44 146.012 215.963C146.79 216.486 147.36 217.163 147.722 217.995L145.308 219C145.08 218.544 144.785 218.202 144.423 217.974C144.075 217.733 143.632 217.612 143.096 217.612C142.747 217.612 142.419 217.679 142.11 217.814C141.802 217.948 141.527 218.135 141.286 218.377C141.058 218.618 140.877 218.913 140.743 219.262C140.609 219.61 140.542 219.999 140.542 220.428C140.542 220.857 140.609 221.246 140.743 221.595C140.877 221.943 141.058 222.238 141.286 222.479C141.527 222.721 141.802 222.909 142.11 223.043C142.419 223.177 142.747 223.244 143.096 223.244C143.646 223.244 144.108 223.123 144.484 222.882C144.872 222.627 145.181 222.265 145.409 221.796L147.822 222.842ZM151.736 214.073C151.508 214.073 151.287 214.033 151.072 213.952C150.871 213.858 150.69 213.738 150.529 213.59C150.382 213.429 150.261 213.248 150.167 213.047C150.087 212.846 150.046 212.625 150.046 212.383C150.046 212.142 150.087 211.921 150.167 211.72C150.261 211.519 150.382 211.344 150.529 211.197C150.69 211.036 150.871 210.915 151.072 210.835C151.287 210.741 151.508 210.694 151.736 210.694C152.205 210.694 152.607 210.862 152.942 211.197C153.278 211.519 153.445 211.914 153.445 212.383C153.445 212.853 153.278 213.255 152.942 213.59C152.607 213.912 152.205 214.073 151.736 214.073ZM150.428 225.355V215.501H153.063V225.355H150.428ZM162.286 224.31H162.125C161.816 224.685 161.441 225.007 160.999 225.275C160.57 225.543 160.013 225.677 159.329 225.677C158.82 225.677 158.337 225.59 157.881 225.416C157.439 225.255 157.05 225.027 156.715 224.732C156.38 224.437 156.118 224.082 155.93 223.666C155.743 223.25 155.649 222.795 155.649 222.298C155.649 221.789 155.749 221.333 155.951 220.931C156.152 220.515 156.433 220.16 156.795 219.865C157.157 219.57 157.58 219.349 158.062 219.201C158.558 219.04 159.095 218.96 159.671 218.96C160.315 218.96 160.844 219.014 161.26 219.121C161.676 219.215 162.018 219.315 162.286 219.423V219.121C162.286 218.598 162.078 218.169 161.662 217.834C161.247 217.485 160.73 217.311 160.114 217.311C159.202 217.311 158.431 217.693 157.801 218.457L155.89 217.15C156.936 215.836 158.364 215.179 160.174 215.179C161.703 215.179 162.869 215.541 163.673 216.265C164.478 216.976 164.88 218.035 164.88 219.443V225.355H162.286V224.31ZM162.286 221.353C161.977 221.206 161.656 221.092 161.32 221.011C160.999 220.917 160.643 220.871 160.254 220.871C159.624 220.871 159.135 221.011 158.786 221.293C158.451 221.561 158.284 221.896 158.284 222.298C158.284 222.701 158.444 223.023 158.766 223.264C159.101 223.505 159.484 223.626 159.913 223.626C160.261 223.626 160.583 223.566 160.878 223.445C161.173 223.311 161.421 223.143 161.622 222.942C161.837 222.728 161.998 222.486 162.105 222.218C162.225 221.936 162.286 221.648 162.286 221.353ZM170.287 216.788H170.448C170.756 216.292 171.172 215.903 171.694 215.621C172.217 215.326 172.814 215.179 173.484 215.179C174.101 215.179 174.644 215.279 175.113 215.481C175.583 215.682 175.965 215.97 176.26 216.345C176.568 216.707 176.796 217.15 176.944 217.673C177.105 218.182 177.185 218.752 177.185 219.382V225.355H174.55V219.704C174.55 218.993 174.389 218.471 174.068 218.135C173.759 217.787 173.303 217.612 172.7 217.612C172.338 217.612 172.016 217.693 171.735 217.854C171.467 218.001 171.232 218.209 171.031 218.477C170.843 218.732 170.696 219.04 170.588 219.402C170.494 219.751 170.448 220.126 170.448 220.529V225.355H167.813V215.501H170.287V216.788Z" fill="black"/>
</svg>
